<svg width="41" height="50" viewBox="0 0 41 50" fill="none" xmlns="http://www.w3.org/2000/svg">
<g clip-path="url(#clip0_84_181)">
<path d="M3.67847 10.3005C3.26686 10.3005 2.92046 10.4477 2.74572 10.7356C2.56552 11.0326 2.59279 11.4155 2.78508 11.803L7.40921 19.9486C7.41703 19.9641 7.41703 19.9739 7.40921 19.9882L0.142611 33.0373C-0.0468304 33.4214 -0.0375836 33.8072 0.142611 34.1049C0.317116 34.3913 0.624639 34.5792 1.03672 34.5792H7.87558C8.89795 34.5792 9.39135 33.8771 9.74084 33.2353C9.74084 33.2353 16.8474 20.4454 17.1241 19.9489C17.0961 19.903 12.4224 11.6056 12.4224 11.6056C12.0812 10.9886 11.5674 10.3003 10.5185 10.3003H3.67847V10.3005Z" fill="black"/>
<path d="M32.41 0.770377C31.3884 0.770377 30.9457 1.4252 30.5789 2.09594C30.5789 2.09594 15.8456 28.6844 15.3601 29.5573C15.385 29.6046 25.0773 47.699 25.0773 47.699C25.4168 48.3161 25.9406 49.0245 26.9883 49.0245H33.8191C34.2312 49.0245 34.5532 48.8667 34.7267 48.5799C34.9093 48.2831 34.9041 47.8905 34.7127 47.5043L25.0714 29.5788C25.0669 29.5721 25.0644 29.5641 25.0644 29.556C25.0644 29.5478 25.0669 29.5399 25.0714 29.5332L40.2132 2.28847C40.4036 1.90388 40.4076 1.51157 40.2277 1.21432C40.0532 0.927689 39.7302 0.769653 39.3182 0.769653H32.4093V0.770136H32.41V0.770377Z" fill="black"/>
</g>
<defs>
<clipPath id="clip0_84_181">
<rect width="40.3636" height="48.2549" fill="white" transform="translate(0 0.769897)"/>
</clipPath>
</defs>
</svg>
